<?xml version="1.0" encoding="utf-8"?>
<!-- Svg Vector Icons : http://www.sfont.cn -->
<!DOCTYPE svg PUBLIC "-//W3C//DTD SVG 1.1//EN" "http://www.w3.org/Graphics/SVG/1.1/DTD/svg11.dtd">
<svg version="1.1" xmlns="http://www.w3.org/2000/svg" xmlns:xlink="http://www.w3.org/1999/xlink" x="0px" y="0px" viewBox="0 0 1000 1000" enable-background="new 0 0 1000 1000" xml:space="preserve">
<metadata> Svg Vector Icons : http://www.sfont.cn </metadata>
<g><g transform="translate(0.000000,511.000000) scale(0.100000,-0.100000)"><path d="M6577.3,3763.7L3281.1,2701V28.1c0-1571.3-8.6-2724.8-21.6-2798.4c-39-238.1-199.1-515.1-406.9-703.4c-575.7-519.4-1450.1-632-1876.4-240.2c-136.3,125.5-188.3,233.8-201.3,422c-28.1,424.2,287.9,874.4,794.3,1140.6c246.7,129.9,448,188.3,690.4,203.5c110.4,6.5,203.4,19.5,207.8,26c4.3,6.5,15.2,155.8,23.8,333.3l17.3,318.2h-151.5c-82.2,0-242.4-15.2-354.9-34.6c-759.7-132-1428.4-614.7-1731.4-1253.1C97.4-2924,58.5-3242.1,142.9-3575.4c268.4-1049.7,1707.6-1372.2,2837.4-636.3c487,318.2,837.6,800.8,928.5,1276.9c10.8,56.3,21.6,909,26,1893.8c4.3,986.9,10.8,2125.3,17.3,2527.9l10.8,733.7l2629.6,848.4L9222,3915.2l6.5-3300.5c4.3-3235.6,4.3-3304.9-39-3443.4c-209.9-699.1-1205.5-1216.3-1917.5-999.9c-396.1,121.2-595.2,413.4-532.4,779.1c41.1,242.4,155.8,441.5,380.9,664.4c168.8,168.8,229.4,212.1,424.2,309.5c222.9,110.4,502.1,199.1,636.3,199.1c171,0,164.5-10.8,164.5,352.8v324.6l-188.3-13c-616.8-41.1-1294.2-393.9-1673-872.2c-238.1-300.8-367.9-588.7-413.4-928.5c-73.6-554,231.6-1103.8,746.7-1352.7c246.7-119,396.1-153.7,712-166.7c318.2-15.2,517.3,10.8,805.1,103.9c701.2,222.9,1263.9,748.8,1486.9,1385.1l71.4,203.4l6.5,3837.3c2.2,2108-2.1,3835.1-10.8,3832.9C9877.8,4828.5,8388.8,4350.2,6577.3,3763.7z"/></g></g>
</svg>